<svg width="22" height="auto" viewBox="0 0 64 64" version="1.1" xmlns="http://www.w3.org/2000/svg" xmlns:xlink="http://www.w3.org/1999/xlink" fill="#888888"><title>Coastal event</title><g id="Page-1" stroke="#888888" stroke-width="1" fill="none" fill-rule="evenodd"><g id="Artboard" fill-rule="nonzero" fill="#888888"><g id="e2" transform="translate(4.000000, 0.000000)"><path d="M42.5102564,39.9238095 C37.6692308,39.9238095 35.4,42.8190476 33.4333333,45.1047619 C31.7692308,47.0857143 30.8615385,48.152381 29.0461538,48.152381 L28.8948718,48.152381 L28.7435897,48.152381 L28.5923077,48.152381 L28.5923077,48.152381 C26.7769231,48.152381 25.8692308,47.0857143 24.3564103,45.1047619 C22.3897436,42.8190476 20.1205128,39.9238095 15.2794872,39.9238095 C10.4384615,39.9238095 8.16923077,42.8190476 6.2025641,45.1047619 C4.53846154,47.0857143 3.63076923,48.152381 1.66410256,48.152381 C0.907692308,48.152381 0.151282051,48.7619048 0.151282051,49.6761905 C0.151282051,50.4380952 0.756410256,51.2 1.66410256,51.2 C4.99230769,51.2 6.65641026,49.2190476 8.47179487,47.0857143 C10.2871795,44.952381 11.8,42.9714286 15.2794872,42.9714286 C18.7589744,42.9714286 20.2717949,44.952381 22.0871795,47.0857143 C23.7512821,49.2190476 25.4153846,51.2 28.8948718,51.2 L29.0461538,51.2 L29.1974359,51.2 C32.525641,51.2 34.1897436,49.2190476 36.0051282,47.0857143 C37.8205128,44.952381 39.3333333,42.9714286 42.8128205,42.9714286 C46.2923077,42.9714286 47.8051282,44.952381 49.6205128,47.0857143 C51.2846154,49.2190476 52.9487179,51.2 56.4282051,51.2 C57.1846154,51.2 57.9410256,50.5904762 57.9410256,49.6761905 C57.9410256,48.9142857 57.3358974,48.152381 56.4282051,48.152381 C54.4615385,48.152381 53.7051282,47.2380952 51.8897436,45.1047619 C50.3769231,43.2761905 48.7128205,41.2952381 45.8384615,40.3809524 L45.8384615,35.8095238 C45.8384615,33.8285714 45.0820513,32 43.8717949,30.7809524 C40.8461538,27.8857143 35.8538462,28.0380952 35.5512821,28.0380952 L24.2051282,28.0380952 L24.2051282,24.3809524 C27.6846154,23.6190476 30.2564103,20.5714286 30.2564103,16.9142857 L30.2564103,7.61904762 C30.2564103,3.35238095 26.7769231,0 22.6923077,0 C18.6076923,0 15.1282051,3.5047619 15.1282051,7.61904762 L15.1282051,16.7619048 C15.1282051,20.4190476 17.7,23.6190476 21.1794872,24.2285714 L21.1794872,27.8857143 L1.51282051,27.8857143 C0.756410256,27.8857143 0,28.4952381 0,29.4095238 C0,30.1714286 0.605128205,30.9333333 1.51282051,30.9333333 L35.2487179,30.9333333 C35.2487179,30.9333333 39.3333333,30.9333333 41.4512821,32.9142857 C42.2076923,33.6761905 42.6615385,34.5904762 42.6615385,35.8095238 L42.5102564,39.9238095 L42.5102564,39.9238095 Z M18.1538462,16.7619048 L18.1538462,7.61904762 C18.1538462,5.02857143 20.1205128,3.04761905 22.6923077,3.04761905 C25.2641026,3.04761905 27.3820513,5.18095238 27.3820513,7.77142857 L27.3820513,16.9142857 C27.3820513,18.8952381 26.0205128,20.7238095 24.2051282,21.3333333 L24.2051282,15.5428571 C24.2051282,14.7809524 23.6,14.0190476 22.6923077,14.0190476 C21.9358974,14.0190476 21.1794872,14.6285714 21.1794872,15.5428571 L21.1794872,21.3333333 C19.3641026,20.5714286 18.1538462,18.8952381 18.1538462,16.7619048 Z" id="Shape"></path> <path d="M55.974359,60.952381 C54.0076923,60.952381 53.2512821,60.0380952 51.4358974,57.9047619 C49.4692308,55.6190476 47.2,52.7238095 42.3589744,52.7238095 C37.5179487,52.7238095 35.2487179,55.6190476 33.2820513,57.9047619 C31.6179487,59.8857143 30.7102564,60.952381 28.8948718,60.952381 L28.4410256,60.952381 L28.4410256,60.952381 C26.7769231,60.8 25.8692308,59.8857143 24.2051282,57.9047619 C22.2384615,55.6190476 19.9692308,52.7238095 15.1282051,52.7238095 C10.2871795,52.7238095 8.01794872,55.6190476 6.05128205,57.9047619 C4.38717949,59.8857143 3.47948718,60.952381 1.51282051,60.952381 C0.756410256,60.952381 0,61.5619048 0,62.4761905 C0,63.3904762 0.605128205,64 1.51282051,64 C4.84102564,64 6.50512821,62.0190476 8.32051282,59.8857143 C10.1358974,57.752381 11.6487179,55.7714286 15.1282051,55.7714286 C18.6076923,55.7714286 20.1205128,57.752381 21.9358974,59.8857143 C23.6,62.0190476 25.2641026,64 28.7435897,64 L28.8948718,64 L29.0461538,64 C32.374359,64 34.0384615,62.0190476 35.8538462,59.8857143 C37.6692308,57.752381 39.1820513,55.7714286 42.6615385,55.7714286 C46.1410256,55.7714286 47.6538462,57.752381 49.4692308,59.8857143 C51.1333333,62.0190476 52.7974359,64 56.2769231,64 C57.0333333,64 57.7897436,63.3904762 57.7897436,62.4761905 C57.7897436,61.5619048 56.8820513,60.952381 55.974359,60.952381 Z" id="Shape"></path></g></g></g></svg>
