<svg width="22" height="auto" viewBox="0 0 64 64" version="1.1" xmlns="http://www.w3.org/2000/svg" xmlns:xlink="http://www.w3.org/1999/xlink" fill="#888888"><title>Drought</title> <g id="Artboard" fill-rule="nonzero" fill="#888888"><g id="e" transform="translate(7.000000, 0.000000)"><path d="M34.9491429,30.9790476 L26.1511429,30.9790476 C25.6327959,31.0147063 25.122935,30.8326501 24.7428571,30.4761905 L7.73742857,13.2419048 C7.06592505,12.4903869 7.09458823,11.3419522 7.80273497,10.6253028 C8.51088171,9.90865345 9.65195806,9.87330379 10.4025714,10.5447619 L26.9234286,27.1695238 L33.8285714,27.1695238 L43.4442857,9.95047619 C43.7770021,9.35707506 44.3990418,8.98736822 45.0760885,8.98062066 C45.7531353,8.97387311 46.3823295,9.33110994 46.7266599,9.91776352 C47.0709904,10.5044171 47.0781449,11.2313608 46.7454286,11.8247619 L36.5997143,30.0038095 C36.2678284,30.6078529 35.6350458,30.9817317 34.9491429,30.9790476 L34.9491429,30.9790476 Z" id="Shape"></path> <path d="M20.518,24.152381 C19.4963321,24.1194652 18.6851908,23.2762391 18.6857143,22.247619 L18.6857143,1.9047619 C18.6857143,0.852790953 19.5331753,1.93243929e-16 20.5785714,0 C21.6239676,-1.93243929e-16 22.4714286,0.852790953 22.4714286,1.9047619 L22.4714286,22.247619 C22.4716911,22.7635335 22.2639725,23.2574884 21.8957825,23.6165055 C21.5275924,23.9755227 21.0304275,24.1688903 20.518,24.152381 Z" id="Shape"></path> <path d="M28.6042857,16.5790476 L20.518,16.5790476 C19.4726039,16.5790476 18.6251429,15.7262567 18.6251429,14.6742857 C18.6251429,13.6223148 19.4726039,12.7695238 20.518,12.7695238 L27.4534286,12.7695238 L33.2531429,1.6152381 C33.7382067,0.68108789 34.8839739,0.319504526 35.8122857,0.807619048 C36.7405975,1.29573357 37.0999209,2.44870694 36.6148571,3.38285714 L30.2851429,15.5733333 C29.9486887,16.1915994 29.3047759,16.5768745 28.6042857,16.5790476 L28.6042857,16.5790476 Z M37.8868571,40.6095238 L15.9751429,40.6095238 C15.607502,40.6110564 15.2481911,40.4993948 14.9454286,40.2895238 L1.31685714,31.3904762 C0.466323988,30.7942304 0.244443416,29.6237226 0.817142857,28.7542857 C1.39027453,27.8752143 2.56282168,27.6296815 3.43685714,28.2057143 L16.5354286,36.8 L37.2054286,36.8 L47.7145714,27.9466667 C48.5174357,27.2691974 49.7140506,27.3749435 50.3872857,28.1828571 C51.0605208,28.9907708 50.9554357,30.1949117 50.1525714,30.872381 L39.0982857,40.152381 C38.761044,40.4443647 38.3317328,40.6063689 37.8868571,40.6095238 L37.8868571,40.6095238 Z M50.0465714,23.3447619 L39.2194286,23.3447619 C38.1740324,23.3447619 37.3265714,22.491971 37.3265714,21.44 C37.3265714,20.388029 38.1740324,19.5352381 39.2194286,19.5352381 L50.0465714,19.5352381 C51.0919676,19.5352381 51.9394286,20.388029 51.9394286,21.44 C51.9394286,22.491971 51.0919676,23.3447619 50.0465714,23.3447619 L50.0465714,23.3447619 Z" id="Shape"></path> <path d="M27.09,63.192381 C26.0446039,63.192381 25.1971429,62.33959 25.1971429,61.287619 L25.1971429,29.0742857 C25.1971429,28.0223148 26.0446039,27.1695238 27.09,27.1695238 C28.1353961,27.1695238 28.9828571,28.0223148 28.9828571,29.0742857 L28.9828571,61.287619 C28.9828571,62.33959 28.1353961,63.192381 27.09,63.192381 Z" id="Shape"></path></g></g></svg>
