<?xml version="1.0" encoding="utf-8"?>
<!-- Generator: Adobe Illustrator 22.0.1, SVG Export Plug-In . SVG Version: 6.00 Build 0)  -->
<svg version="1.1" id="Calque_1" xmlns="http://www.w3.org/2000/svg" xmlns:xlink="http://www.w3.org/1999/xlink" x="0px" y="0px"
	 viewBox="0 0 56.7 56.7" style="enable-background:new 0 0 56.7 56.7;" xml:space="preserve">
	<g id="Calque_4" fill="#fff">
		<g>
			<path class="st0" d="M35.4,25.9l8.4-6.7l-2-2.1L34,23.3c-2.5-4.4-5.8-8.1-5.8-8.1s-8.7,9.8-8.7,16.6c0,1,0.1,1.9,0.3,2.8l-7.1,5.7
				l2,2.1l6.3-5l0,0L35.4,25.9C35.5,26,35.4,26,35.4,25.9z"/>
			<path class="st0" d="M22.7,39.2c1.4,1.3,3.2,2.1,5.3,2.2c4.8,0.2,8.9-3.6,9.1-8.6c0-0.3,0-0.6,0-0.9c0-1.2-0.3-2.4-0.7-3.7
				L22.7,39.2z"/>
		</g>
	</g>
</svg>
